<svg width="702" height="702" viewBox="0 0 702 702" fill="none" xmlns="http://www.w3.org/2000/svg">
<path fill-rule="evenodd" clip-rule="evenodd" d="M0 602C0 657.228 44.7715 702 100 702H602C657.228 702 702 657.228 702 602V100C702 44.7715 657.228 0 602 0H100C44.7715 0 0 44.7715 0 100V602ZM241.672 506.125C258.688 506.125 269 496.047 269 481.234V437.359H258.547V480.391C258.547 490.234 252.453 496.844 241.672 496.844C230.891 496.844 224.75 490.234 224.75 480.391V437.359H214.25V481.234C214.25 496.047 224.703 506.125 241.672 506.125ZM281.469 505H323.469V495.953H291.969V437.359H281.469V505ZM350 505H339.5V446.406H318.781V437.359H370.672V446.406H350V505ZM379.25 505H389.75V479.031H404.188L417.969 505H430.062L414.922 477.438C423.031 474.672 428.047 467.359 428.047 458.172V458.078C428.047 445.375 419.328 437.359 405.5 437.359H379.25V505ZM389.75 470.406V446.172H404.188C412.25 446.172 417.219 450.672 417.219 458.172V458.266C417.219 465.953 412.578 470.406 404.469 470.406H389.75ZM444.219 505H433.203L457.812 437.359H469.156L493.719 505H482.703L476.516 486.719H450.453L444.219 505ZM463.578 448.562H463.391L453.266 478.281H473.656L463.578 448.562ZM499.906 393.17C507.193 396.363 515.469 397.96 524.736 397.96C534.182 397.96 542.571 396.251 549.902 392.832C557.234 389.369 563.014 384.623 567.243 378.596C571.516 372.568 573.63 365.754 573.585 358.152C573.63 349.426 571.111 342.116 566.028 336.224C560.99 330.331 553.883 326.688 544.707 325.293V324.214C551.904 322.37 557.662 318.749 561.98 313.351C566.343 307.953 568.502 301.386 568.457 293.649C568.502 286.857 566.748 280.605 563.194 274.892C559.686 269.179 554.693 264.614 548.216 261.195C541.783 257.732 534.137 256 525.275 256C516.819 256 509.127 257.597 502.2 260.79C495.273 263.984 489.695 268.415 485.467 274.082C481.284 279.75 479.08 286.317 478.855 293.784H499.029C499.209 289.556 500.513 285.935 502.942 282.921C505.371 279.862 508.52 277.523 512.388 275.904C516.302 274.24 520.507 273.408 525.005 273.408C529.728 273.408 533.822 274.307 537.285 276.107C540.794 277.906 543.493 280.402 545.382 283.596C547.316 286.745 548.283 290.456 548.283 294.729C548.283 299.182 547.181 303.073 544.977 306.401C542.773 309.685 539.714 312.249 535.801 314.093C531.933 315.937 527.434 316.859 522.307 316.859H510.634V333.862H522.307C528.694 333.862 534.137 334.874 538.635 336.898C543.178 338.923 546.619 341.711 548.958 345.265C551.342 348.773 552.534 352.844 552.534 357.477C552.534 361.93 551.342 365.866 548.958 369.285C546.574 372.658 543.268 375.29 539.04 377.179C534.856 379.068 530.043 380.013 524.601 380.013C519.653 380.013 515.155 379.203 511.106 377.584C507.058 375.965 503.774 373.67 501.255 370.702C498.781 367.688 497.41 364.134 497.14 360.041H475.954C476.268 367.553 478.518 374.165 482.701 379.878C486.929 385.545 492.664 389.976 499.906 393.17ZM333.302 257.89H308V396.071H327.837V296.011H329.119L369.871 395.869H386.335L427.087 296.079H428.369V396.071H448.206V257.89H422.904L378.913 365.304H377.293L333.302 257.89ZM235.865 393.715C248.005 393.533 255.978 382.523 263.498 371.239C271.276 359.927 274.924 348.761 275.802 346.072C275.906 345.755 275.971 345.555 276 345.488C275.728 345.397 251.992 336.207 251.72 308.727C251.545 286.502 269.102 275.386 271.05 274.152C271.12 274.108 271.17 274.077 271.198 274.058C260.598 258.407 244.11 256.314 238.221 256.041C229.614 255.149 221.244 258.461 214.428 261.159C210.124 262.863 206.438 264.322 203.703 264.322C200.588 264.322 196.735 262.788 192.421 261.07C186.822 258.841 180.446 256.302 173.896 256.405C158.585 256.678 144.452 265.413 136.57 279.245C120.625 307.089 132.493 348.491 147.986 370.966C155.596 381.977 164.565 394.443 176.433 393.988C181.78 393.776 185.562 392.15 189.47 390.47C193.971 388.534 198.639 386.526 206.059 386.526C213.074 386.526 217.527 388.463 221.812 390.327C225.939 392.122 229.91 393.849 235.865 393.715ZM238.402 212C229.342 212.364 218.38 218.097 211.766 225.649C205.968 232.565 200.895 243.484 202.254 253.948C212.4 254.767 222.729 248.762 228.98 241.027C235.322 233.384 239.58 222.646 238.402 212Z" fill="url(#paint0_linear_3146_1304)"/>
<defs>
<linearGradient id="paint0_linear_3146_1304" x1="0" y1="0" x2="702" y2="702" gradientUnits="userSpaceOnUse">
<stop stop-color="#1F1F23"/>
<stop offset="1" stop-color="#050505"/>
</linearGradient>
</defs>
</svg>
