<svg width="702" height="702" viewBox="0 0 702 702" fill="none" xmlns="http://www.w3.org/2000/svg">
<path d="M537.02 396.828H487.637V396.254L536.445 320.84H537.02V396.828Z" fill="url(#paint0_linear_3643_1639)"/>
<path fill-rule="evenodd" clip-rule="evenodd" d="M0 602C0 657.228 44.7715 702 100 702H602C657.228 702 702 657.228 702 602V100C702 44.7715 657.228 0 602 0H100C44.7715 0 0 44.7715 0 100V602ZM235.865 441.715C248.005 441.533 255.978 430.523 263.498 419.239C271.276 407.927 274.924 396.761 275.802 394.072C275.906 393.755 275.971 393.555 276 393.488C275.728 393.397 251.992 384.207 251.72 356.727C251.545 334.502 269.101 323.386 271.05 322.153L271.125 322.105C271.157 322.085 271.181 322.069 271.198 322.058C260.598 306.407 244.11 304.314 238.221 304.041C229.614 303.149 221.244 306.461 214.428 309.159C210.124 310.863 206.438 312.322 203.703 312.322C200.588 312.322 196.735 310.788 192.421 309.07C186.822 306.841 180.446 304.302 173.896 304.405C158.585 304.678 144.452 313.413 136.57 327.245C120.625 355.089 132.493 396.491 147.986 418.966C155.596 429.977 164.565 442.443 176.433 441.988C181.78 441.776 185.562 440.15 189.47 438.47C193.971 436.534 198.639 434.526 206.059 434.526C213.074 434.526 217.527 436.463 221.812 438.327C225.939 440.122 229.91 441.849 235.865 441.715ZM238.402 260C229.342 260.364 218.38 266.097 211.766 273.649C205.968 280.565 200.895 291.484 202.254 301.948C212.4 302.767 222.729 296.762 228.98 289.027C235.322 281.384 239.58 270.646 238.402 260ZM536.828 414.533V442H557.404V414.533H576.449V396.541H557.404V303.9H526.396L467.73 395.871V414.533H536.828ZM308.002 442V303.9H332.789L377.482 414.15H378.057L422.846 303.9H447.537V442H428.014V340.076H427.344L385.713 442H369.826L328.195 340.076H327.525V442H308.002Z" fill="url(#paint1_linear_3643_1639)"/>
<defs>
<linearGradient id="paint0_linear_3643_1639" x1="0" y1="0" x2="702" y2="702" gradientUnits="userSpaceOnUse">
<stop stop-color="#1F1F23"/>
<stop offset="1" stop-color="#050505"/>
</linearGradient>
<linearGradient id="paint1_linear_3643_1639" x1="0" y1="0" x2="702" y2="702" gradientUnits="userSpaceOnUse">
<stop stop-color="#1F1F23"/>
<stop offset="1" stop-color="#050505"/>
</linearGradient>
</defs>
</svg>
