<svg width="702" height="702" viewBox="0 0 702 702" fill="none" xmlns="http://www.w3.org/2000/svg">
<path d="M360.75 448.562H360.562L350.438 478.281H370.828L360.75 448.562Z" fill="url(#paint0_linear_3643_1645)"/>
<path d="M487.635 340.928H537.018V264.939H536.443L487.635 340.354V340.928Z" fill="url(#paint1_linear_3643_1645)"/>
<path fill-rule="evenodd" clip-rule="evenodd" d="M0 602C0 657.228 44.7715 702 100 702H602C657.228 702 702 657.228 702 602V100C702 44.7715 657.228 0 602 0H100C44.7715 0 0 44.7715 0 100V602ZM235.865 393.715C248.005 393.533 255.978 382.523 263.498 371.239C271.276 359.927 274.924 348.761 275.802 346.072C275.906 345.755 275.971 345.555 276 345.488C275.728 345.397 251.992 336.207 251.72 308.727C251.545 286.502 269.102 275.386 271.05 274.152L271.053 274.151L271.118 274.109C271.154 274.087 271.18 274.07 271.198 274.058C260.598 258.407 244.11 256.314 238.221 256.041C229.614 255.149 221.244 258.461 214.428 261.159C210.124 262.863 206.438 264.322 203.703 264.322C200.588 264.322 196.735 262.788 192.421 261.07C186.822 258.841 180.446 256.302 173.896 256.405C158.585 256.678 144.452 265.413 136.57 279.245C120.625 307.089 132.493 348.491 147.986 370.966C155.596 381.977 164.565 394.443 176.433 393.988C181.78 393.776 185.562 392.15 189.47 390.47C193.971 388.534 198.639 386.526 206.059 386.526C213.074 386.526 217.527 388.463 221.812 390.327C225.939 392.122 229.91 393.849 235.865 393.715ZM238.402 212C229.342 212.364 218.38 218.097 211.766 225.649C205.968 232.565 200.895 243.484 202.254 253.948C212.4 254.767 222.729 248.762 228.98 241.027C235.322 233.384 239.58 222.646 238.402 212ZM264.141 505H254.578V437.359H266.719L288.609 491.359H288.891L310.828 437.359H322.922V505H313.359V455.078H313.031L292.641 505H284.859L264.469 455.078H264.141V505ZM341.391 505H330.375L354.984 437.359H366.328L390.891 505H379.875L373.688 486.719H347.625L341.391 505ZM393 505H404.625L421.594 479.172H421.969L438.844 505H451.125L428.625 471.344V471.156L451.547 437.359H439.688L422.906 463.562H422.484L405.75 437.359H393.234L415.5 470.828V470.969L393 505ZM536.826 386.1V358.633H467.729V339.971L526.395 248H557.402V340.641H576.447V358.633H557.402V386.1H536.826ZM308 248V386.1H327.523V284.176H328.193L369.824 386.1H385.711L427.342 284.176H428.012V386.1H447.535V248H422.844L378.055 358.25H377.48L332.787 248H308Z" fill="url(#paint2_linear_3643_1645)"/>
<defs>
<linearGradient id="paint0_linear_3643_1645" x1="0" y1="0" x2="702" y2="702" gradientUnits="userSpaceOnUse">
<stop stop-color="#1F1F23"/>
<stop offset="1" stop-color="#050505"/>
</linearGradient>
<linearGradient id="paint1_linear_3643_1645" x1="0" y1="0" x2="702" y2="702" gradientUnits="userSpaceOnUse">
<stop stop-color="#1F1F23"/>
<stop offset="1" stop-color="#050505"/>
</linearGradient>
<linearGradient id="paint2_linear_3643_1645" x1="0" y1="0" x2="702" y2="702" gradientUnits="userSpaceOnUse">
<stop stop-color="#1F1F23"/>
<stop offset="1" stop-color="#050505"/>
</linearGradient>
</defs>
</svg>
