<svg width="702" height="702" viewBox="0 0 702 702" fill="none" xmlns="http://www.w3.org/2000/svg">
<path d="M409.391 496.844C396.547 496.844 388.391 486.953 388.391 471.203V471.109C388.391 455.359 396.594 445.516 409.391 445.516C422.234 445.516 430.344 455.406 430.344 471.109V471.203C430.344 486.812 422.375 496.844 409.391 496.844Z" fill="url(#paint0_linear_3643_1632)"/>
<path d="M301.297 459.578C301.297 451.141 296.047 446.219 286.906 446.219H274.859V473.078H286.906C296.047 473.078 301.297 468.156 301.297 459.672V459.578Z" fill="url(#paint1_linear_3643_1632)"/>
<path d="M331.672 446.172V470.406H346.391C354.5 470.406 359.141 465.953 359.141 458.266V458.172C359.141 450.672 354.172 446.172 346.109 446.172H331.672Z" fill="url(#paint2_linear_3643_1632)"/>
<path d="M537.018 350.928H487.635V350.354L536.443 274.939H537.018V350.928Z" fill="url(#paint3_linear_3643_1632)"/>
<path fill-rule="evenodd" clip-rule="evenodd" d="M0 602C0 657.228 44.7715 702 100 702H602C657.228 702 702 657.228 702 602V100C702 44.7715 657.228 0 602 0H100C44.7715 0 0 44.7715 0 100V602ZM263.498 371.239C255.978 382.523 248.005 393.533 235.865 393.715C229.91 393.849 225.939 392.122 221.812 390.327C217.527 388.463 213.074 386.526 206.059 386.526C198.639 386.526 193.971 388.534 189.47 390.47C185.562 392.15 181.78 393.776 176.433 393.988C164.565 394.443 155.596 381.977 147.986 370.966C132.493 348.491 120.625 307.089 136.57 279.245C144.452 265.413 158.585 256.678 173.896 256.405C180.446 256.302 186.822 258.841 192.421 261.07C196.735 262.788 200.588 264.322 203.703 264.322C206.438 264.322 210.123 262.863 214.428 261.159C221.244 258.461 229.614 255.149 238.221 256.041C244.11 256.314 260.598 258.407 271.198 274.058C271.181 274.069 271.157 274.085 271.125 274.105L271.05 274.153C269.101 275.386 251.545 286.502 251.72 308.727C251.992 336.207 275.728 345.397 276 345.488C275.971 345.555 275.906 345.754 275.803 346.071L275.802 346.072C274.924 348.762 271.276 359.928 263.498 371.239ZM211.766 225.649C218.38 218.097 229.342 212.364 238.402 212C239.58 222.646 235.322 233.384 228.98 241.027C222.729 248.762 212.4 254.767 202.254 253.948C200.895 243.484 205.968 232.565 211.766 225.649ZM409.391 506.125C428.938 506.125 441.078 492.672 441.078 471.203V471.109C441.078 449.688 428.891 436.234 409.391 436.234C389.938 436.234 377.703 449.641 377.703 471.109V471.203C377.703 492.719 389.891 506.125 409.391 506.125ZM274.859 505H264.359V437.359H289.531C302.797 437.359 311.984 446.266 311.984 459.531V459.625C311.984 472.844 302.797 481.891 289.531 481.891H274.859V505ZM331.672 505H321.172V437.359H347.422C361.25 437.359 369.969 445.375 369.969 458.078V458.172C369.969 467.359 364.953 474.672 356.844 477.438L371.984 505H359.891L346.109 479.031H331.672V505ZM536.826 368.633V396.1H557.402V368.633H576.447V350.641H557.402V258H526.395L467.729 349.971V368.633H536.826ZM308 396.1V258H332.787L377.48 368.25H378.055L422.844 258H447.535V396.1H428.012V294.176H427.342L385.711 396.1H369.824L328.193 294.176H327.523V396.1H308Z" fill="url(#paint4_linear_3643_1632)"/>
<defs>
<linearGradient id="paint0_linear_3643_1632" x1="0" y1="0" x2="702" y2="702" gradientUnits="userSpaceOnUse">
<stop stop-color="#1F1F23"/>
<stop offset="1" stop-color="#050505"/>
</linearGradient>
<linearGradient id="paint1_linear_3643_1632" x1="0" y1="0" x2="702" y2="702" gradientUnits="userSpaceOnUse">
<stop stop-color="#1F1F23"/>
<stop offset="1" stop-color="#050505"/>
</linearGradient>
<linearGradient id="paint2_linear_3643_1632" x1="0" y1="0" x2="702" y2="702" gradientUnits="userSpaceOnUse">
<stop stop-color="#1F1F23"/>
<stop offset="1" stop-color="#050505"/>
</linearGradient>
<linearGradient id="paint3_linear_3643_1632" x1="0" y1="0" x2="702" y2="702" gradientUnits="userSpaceOnUse">
<stop stop-color="#1F1F23"/>
<stop offset="1" stop-color="#050505"/>
</linearGradient>
<linearGradient id="paint4_linear_3643_1632" x1="0" y1="0" x2="702" y2="702" gradientUnits="userSpaceOnUse">
<stop stop-color="#1F1F23"/>
<stop offset="1" stop-color="#050505"/>
</linearGradient>
</defs>
</svg>
