<svg width="702" height="702" viewBox="0 0 702 702" fill="none" xmlns="http://www.w3.org/2000/svg">
<g clip-path="url(#clip0_3838_2)">
<rect x="114" y="235" width="494" height="229" fill="#D9D9D9"/>
<path d="M537.02 396.828H487.637V396.254L536.445 320.84H537.02V396.828Z" fill="url(#paint0_linear_3838_2)"/>
<path fill-rule="evenodd" clip-rule="evenodd" d="M0 602C0 657.228 44.7715 702 100 702H602C657.228 702 702 657.228 702 602V100C702 44.7715 657.228 0 602 0H100C44.7715 0 0 44.7715 0 100V602ZM235.865 441.715C248.005 441.533 255.978 430.523 263.498 419.239C271.276 407.927 274.924 396.761 275.802 394.072C275.906 393.755 275.971 393.555 276 393.488C275.728 393.397 251.992 384.207 251.72 356.727C251.545 334.502 269.101 323.386 271.05 322.153L271.125 322.105C271.157 322.085 271.181 322.069 271.198 322.058C260.598 306.407 244.11 304.314 238.221 304.041C229.614 303.149 221.244 306.461 214.428 309.159C210.124 310.863 206.438 312.322 203.703 312.322C200.588 312.322 196.735 310.788 192.421 309.07C186.822 306.841 180.446 304.302 173.896 304.405C158.585 304.678 144.452 313.413 136.57 327.245C120.625 355.089 132.493 396.491 147.986 418.966C155.596 429.977 164.565 442.443 176.433 441.988C181.78 441.776 185.562 440.15 189.47 438.47C193.971 436.534 198.639 434.526 206.059 434.526C213.074 434.526 217.527 436.463 221.812 438.327C225.939 440.122 229.91 441.849 235.865 441.715ZM238.402 260C229.342 260.364 218.38 266.097 211.766 273.649C205.968 280.565 200.895 291.484 202.254 301.948C212.4 302.767 222.729 296.762 228.98 289.027C235.322 281.384 239.58 270.646 238.402 260ZM536.828 414.533V442H557.404V414.533H576.449V396.541H557.404V303.9H526.396L467.73 395.871V414.533H536.828ZM308.002 442V303.9H332.789L377.482 414.15H378.057L422.846 303.9H447.537V442H428.014V340.076H427.344L385.713 442H369.826L328.195 340.076H327.525V442H308.002Z" fill="url(#paint1_linear_3838_2)"/>
<rect x="465" y="297" width="118" height="147" fill="url(#paint2_linear_3838_2)"/>
<path d="M524.863 446.344C515.879 446.344 507.871 444.618 500.84 441.168C493.874 437.717 488.275 432.997 484.043 427.008C479.811 421.018 477.337 414.215 476.621 406.598L476.523 405.523H493.809L493.906 406.305C494.492 410.927 496.185 415.126 498.984 418.902C501.784 422.613 505.43 425.543 509.922 427.691C514.414 429.84 519.46 430.914 525.059 430.914C531.439 430.914 537.07 429.547 541.953 426.812C546.836 424.078 550.645 420.302 553.379 415.484C556.113 410.602 557.48 405.003 557.48 398.688V398.492C557.48 392.307 556.081 386.839 553.281 382.086C550.547 377.268 546.771 373.492 541.953 370.758C537.135 368.023 531.602 366.656 525.352 366.656C520.599 366.656 516.172 367.372 512.07 368.805C508.034 370.172 504.453 372.288 501.328 375.152C500.091 376.324 498.887 377.594 497.715 378.961C496.608 380.328 495.599 381.826 494.688 383.453H479.16L486.387 303.082H567.051V318.707H500.84L496.055 366.07H496.445C498.659 362.88 501.393 360.211 504.648 358.062C507.904 355.914 511.549 354.286 515.586 353.18C519.622 352.073 523.919 351.52 528.477 351.52C537.526 351.52 545.534 353.538 552.5 357.574C559.531 361.611 565.033 367.145 569.004 374.176C573.04 381.142 575.059 389.15 575.059 398.199V398.395C575.059 407.77 572.91 416.07 568.613 423.297C564.316 430.523 558.392 436.188 550.84 440.289C543.288 444.326 534.629 446.344 524.863 446.344Z" fill="#D9D9D9"/>
</g>
<defs>
<linearGradient id="paint0_linear_3838_2" x1="-0.000551711" y1="-0.000177635" x2="702" y2="702" gradientUnits="userSpaceOnUse">
<stop stop-color="#1F1F23"/>
<stop offset="1" stop-color="#050505"/>
</linearGradient>
<linearGradient id="paint1_linear_3838_2" x1="0" y1="0" x2="702" y2="702" gradientUnits="userSpaceOnUse">
<stop stop-color="#1F1F23"/>
<stop offset="1" stop-color="#050505"/>
</linearGradient>
<linearGradient id="paint2_linear_3838_2" x1="465" y1="339.5" x2="583" y2="339.5" gradientUnits="userSpaceOnUse">
<stop stop-color="#0E0E10"/>
<stop offset="1" stop-color="#0D0D0E"/>
</linearGradient>
<clipPath id="clip0_3838_2">
<rect width="702" height="702" fill="white"/>
</clipPath>
</defs>
</svg>
